<?xml version="1.0" encoding="UTF-8" standalone="no"?>
<svg
   xmlns:dc="http://purl.org/dc/elements/1.1/"
   xmlns:cc="http://creativecommons.org/ns#"
   xmlns:rdf="http://www.w3.org/1999/02/22-rdf-syntax-ns#"
   xmlns:svg="http://www.w3.org/2000/svg"
   xmlns="http://www.w3.org/2000/svg"
   xmlns:sodipodi="http://sodipodi.sourceforge.net/DTD/sodipodi-0.dtd"
   xmlns:inkscape="http://www.inkscape.org/namespaces/inkscape"
   sodipodi:docname="testebotao.svg"
   inkscape:version="1.0 (4035a4fb49, 2020-05-01)"
   id="svg212"
   version="1.1"
   viewBox="0 0 165.89825 93.169237"
   height="93.169235mm"
   width="165.89825mm">
  <defs
     id="defs206" />
  <sodipodi:namedview
     inkscape:window-maximized="1"
     inkscape:window-y="-8"
     inkscape:window-x="-8"
     inkscape:window-height="705"
     inkscape:window-width="1360"
     showgrid="false"
     inkscape:document-rotation="0"
     inkscape:current-layer="layer2"
     inkscape:document-units="mm"
     inkscape:cy="129.646"
     inkscape:cx="401.80731"
     inkscape:zoom="0.7"
     inkscape:pageshadow="2"
     inkscape:pageopacity="0.0"
     borderopacity="1.0"
     bordercolor="#666666"
     pagecolor="#ffffff"
     id="base" />
  <metadata
     id="metadata209">
    <rdf:RDF>
      <cc:Work
         rdf:about="">
        <dc:format>image/svg+xml</dc:format>
        <dc:type
           rdf:resource="http://purl.org/dc/dcmitype/StillImage" />
        <dc:title />
      </cc:Work>
    </rdf:RDF>
  </metadata>
  <g
     transform="translate(50.048172,107.35353)"
     inkscape:label="paises"
     id="layer2"
     inkscape:groupmode="layer">
    <path
      style="opacity:1;fill:#b3b3b3;stroke:#000000;stroke-width:0.445536px;stroke-linecap:butt;stroke-linejoin:miter;stroke-opacity:1"
       d="m 35.902917,-68.185309 -0.883624,0.0136 -1.001742,1.336517 -1.167106,-0.05727 -1.426964,-0.08089 -1.072613,0.155341 -0.978118,-0.246258 -0.411153,-0.506118 -0.71826,-0.93134 -0.647389,0.178964 -0.600141,0.06085 -0.789129,0.03722 -0.671013,-0.128141 -0.552895,-0.506117 -0.765506,-0.05727 -0.623766,-0.482494 -0.883624,-0.340752 -0.564569,-0.408581 -0.998883,-0.107903 -0.731614,0.727315 -0.725794,-0.795376 -1.026473,-0.194019 -1.327151,0.140068 -0.458525,0.741424 0.0034,2.264115 -0.56457,0.727315 -0.06344,0.894358 -1.065701,-0.04109 -0.599309,0.654854 -0.666126,0.855306 -0.198405,1.924384 -0.966805,0.120315 -0.365448,-0.614676 -1.300892,-0.213772 -0.632718,0.621446 -0.5092266,0.937954 -1.1774005,-0.131123 -0.7430874,-0.799298 -1.0771744,0.0025 -0.8767222,-0.331576 0.1255385,-1.066567 -1.3859489,-0.395882 -1.7372519,-0.601356 -0.8481244,3.472051 -3.6996493,0.472979 -0.1586479,2.904125 -1.280686,1.198122 -2.0838854,-0.219289 -1.4696741,0.583911 -0.2884985,0.961887 -2.1189941,2.943631 2.5426411,4.427159 0.1151947,2.887071 1.3060494,1.206 -0.6627977,3.262757 -2.5336845,-1.481278 -1.1305194,-2.082633 -1.5314235,-0.0113 -1.063702,1.258236 -0.930068,-1.548095 -3.335493,-0.211747 -0.261893,2.126861 -4.137302,-0.0113 -2.400049,0.656878 -1.598242,1.458688 -1.798693,0.322792 -2.065963,0.924148 -1.798693,0.590061 -2.533684,-2.416721 -4.738658,-0.211747 -0.592417,2.201493 -1.52786,2.26831 -1.461042,0.130154 -0.298444,-2.155731 -1.434338,-0.08439 -0.832983,-1.554374 -2.369782,-1.621192 -2.749494,1.168291 -1.107522,4.735743 1.231087,1.261239 0.162009,2.798039 2.634252,0.7267 1.206259,1.936668 1.540347,0.60032 2.141703,0.333051 0.538085,-1.471019 0.334087,-1.469983 1.346988,0.06371 0.601357,2.338608 3.010329,0.266233 1.727182,1.119314 1.870887,0.267269 2.233347,-2.747804 2.068701,-0.973152 6.579017,0.254552 1.434079,-1.415881 1.9018,-0.814526 0.547035,3.139979 2.0301,1.407332 1.368642,2.352272 5.9500813,0.972029 4.8633997,1.161018 6.1390694,0.310571 4.8045033,0.963451 4.9800543,0.937757 1.355149,0.0015 2.569195,-2.016748 0.714036,-1.775229 2.036953,-0.972028 6.619914,-0.594053 5.202503,-2.200452 1.01668,-2.246283 2.764819,-2.62426 2.339597,-0.40365 -0.353485,-3.427459 -0.501234,-2.930328 2.742221,-2.52615 -0.299204,-1.99849 -2.189086,-0.864561 0.220513,-2.187478 3.433311,0.789085 2.72492,-0.002 0.36257,-4.018046 0.50431,-2.884118 -1.858041,-1.89193 -1.313495,-1.967137 -1.880459,-1.91989 1.237844,-3.101065 0.292904,-2.770336 z"
       id="austria"
       onclick="austriafuncao()">
      <title
         id="title11">Áustria</title>
    </path>
    <path
    onclick="funcaohungria()"
      id="hungria"
       d="m 44.704639,-54.840782 -0.50431,2.884118 -0.36257,4.018046 -2.72492,0.002 -3.433311,-0.789085 -0.220513,2.187478 2.189086,0.864561 0.299204,1.99849 -2.742221,2.52615 0.501234,2.930328 0.353485,3.427459 -2.339597,0.40365 -2.764819,2.62426 2.677705,-0.315196 0.868513,1.700493 1.435477,1.133529 0.301549,1.558751 0.566106,1.779675 2.644975,0.598499 3.117446,2.488381 0.802342,1.732427 1.958694,0.705342 1.722458,0.752588 0.966507,1.17781 0.541284,1.225059 2.729119,0.112523 1.311707,0.821229 0.744744,1.199204 3.972165,0.705872 4.512752,-0.0026 2.914896,-1.235611 1.618645,-2.306795 1.99662,-0.03894 1.973011,-1.823587 3.57941,-1.351116 2.067506,-1.729093 0.661458,-1.488281 1.795931,-0.03085 1.665548,1.296638 1.183999,-1.640293 3.70626,0.217571 1.712422,1.173886 1.308613,-1.956039 3.009505,0.12283 1.403107,-2.523003 2.348052,-0.160652 2.064565,-1.956039 1.214122,-1.483569 -0.297787,-3.562437 2.064567,-2.050533 0.0802,-2.995473 2.44254,-4.696366 0.36368,-3.845921 1.1693,-3.173825 1.49527,-3.632023 2.48087,-3.612228 3.0154,-0.137724 1.8127,-1.741341 0.94407,-1.941794 -0.99364,-1.941793 -1.39454,-0.939532 -1.59499,0.329998 -0.99363,-1.540889 -1.92908,-0.204541 -1.86227,-2.27588 -1.52817,-0.271359 -2.12953,1.064989 -1.59499,0.263181 -1.795447,0.296589 -1.895671,-1.741341 -1.962487,-1.307028 -2.263623,1.287674 -4.668135,0.240947 -0.392279,-0.538628 -2.931226,0.938226 -1.594878,1.673219 -0.823839,3.422122 -1.959734,1.217148 -1.661092,1.80877 -2.54013,0.195317 -1.087019,-0.886504 -2.409935,0.95613 -1.276007,2.042812 -5.575486,1.334106 -1.843203,1.753001 -0.331299,2.367211 -5.292236,1.091542 -6.284423,1.138788 -1.166583,-1.170087 -1.875289,-0.839356 -1.686299,-1.359075 z"
       style="opacity:1;fill:#ff8080;stroke:#000000;stroke-width:0.405676px;stroke-linecap:butt;stroke-linejoin:miter;stroke-opacity:1">
      <title
         id="title13">Hungria</title>
    </path>
    <path
       onclick="funcaoczechia()"
       id="czechia"
       d="m 3.0755781,-64.829332 3.1231998,0.997238 -0.1255395,1.066567 0.8767233,0.331576 1.0771743,-0.0025 0.7430876,0.799298 1.1774011,0.131123 0.5092253,-0.937954 0.632719,-0.621446 1.30089,0.213772 0.365448,0.614676 0.966806,-0.120315 0.198406,-1.924384 0.666125,-0.855306 0.599308,-0.654854 1.065702,0.04109 0.06344,-0.894358 0.564571,-0.727315 -0.0034,-2.264115 0.458526,-0.741424 1.32715,-0.140068 1.026475,0.194019 0.725792,0.795376 0.731615,-0.727315 0.998884,0.107903 0.564568,0.408581 0.883624,0.340752 0.623765,0.482494 0.765506,0.05727 0.552895,0.506117 0.671015,0.128141 1.389268,-0.09807 0.647391,-0.178964 1.129411,1.437458 0.978119,0.246258 1.072613,-0.155341 2.594071,0.13816 1.001741,-1.336517 0.883624,-0.0136 5.280475,1.694169 0.909605,-1.533116 0.952148,-2.154861 1.219417,-0.133634 0.734992,0.484426 3.056895,0.350791 1.302938,-0.851922 1.236123,-0.618061 1.085781,-1.236121 0.350792,-1.186009 1.653731,-0.534539 0.267269,-2.42213 0.868627,-1.937704 4.223496,-4.651323 3.118302,-0.944941 0.04725,-1.74814 -3.449019,-2.693093 v -1.606399 l -1.653645,-0.992188 -0.897695,-0.09449 -0.566962,0.519717 -2.315104,-1.653645 -1.181177,-0.425224 -1.748139,0.850447 -0.992187,0.188988 -2.4096,-2.126116 0.708707,-1.417411 0.330729,-1.133928 -0.803201,-0.236235 -1.228423,0.614211 -1.984375,-0.09449 -2.126115,-1.181176 -2.740326,-1.559151 -1.937129,0.04725 0.425223,1.181176 0.992187,1.370164 0.708705,0.47247 -0.944941,1.74814 -2.551337,1.228423 -2.173364,-2.07887 -3.165549,-2.740327 -0.661459,-0.425224 1.464657,-1.748139 -0.472469,-1.748136 -1.417413,-0.37798 -1.700892,0.14174 -1.700893,1.03944 -0.236235,-1.37017 -2.645834,-0.33073 -3.071056,-1.22842 -1.795385,-1.27567 -0.944941,-1.93713 -1.559153,-0.51971 -1.748139,1.98437 -1.464659,0.99219 -1.039434,0.51972 -1.7481392,-1.13393 -0.708705,-1.88988 h -1.27567 l -0.9449408,0.42522 -0.14174,1.22842 -0.6142117,0.8977 -1.3229166,0.51971 -1.7481418,1.13393 -1.6063965,1.18118 -2.6458333,0.75595 -1.27567,0.28348 -0.047247,1.322917 -1.984375,0.14174 -1.1811767,0.850448 -0.2362359,0.850446 -1.4646566,0.614211 -1.0866808,0.33073 -0.3779784,0.992187 H -10.59689 l -2.315105,0.708706 -1.937128,1.511904 -1.606396,2.362351 -2.031625,-2.031622 0.0945,2.267858 1.370164,2.078869 1.606399,1.275669 1.322916,0.708706 0.09449,2.362351 -0.519719,1.039434 0.472472,1.795387 0.944941,1.464658 1.133927,1.795387 0.661459,1.937128 2.4095967,0.850446 1.4174126,0.09449 0.8031982,1.842634 1.41741,1.74814 1.6063991,0.283482 0.8976942,1.322917 1.2284234,0.992187 1.84263239,0.188988 1.65364581,2.031622 z"
       style="fill:#008080;stroke:#000000;stroke-width:0.264583px;stroke-linecap:butt;stroke-linejoin:miter;stroke-opacity:1">
      <title
         id="title34">República Tchéquia</title>
    </path>
    <path
       onclick="funcaoeslovaquia()"
       id="eslovaquia"
       d="m 105.32709,-69.536345 -0.52598,-3.198537 1.20271,-1.703843 0.43432,-3.841999 0.86862,-2.438835 0.93544,-1.369756 -1.87088,-0.868626 -2.53906,0.133635 -3.60814,-2.80633 -1.436575,-0.7684 -3.140417,-0.601357 -1.469982,0.734992 h -3.641548 l -1.904296,1.77066 -0.701583,0.835218 -1.737251,0.200452 -1.202714,-1.5368 -1.169302,0.06682 -0.668176,0.534539 h -1.804067 l -1.904296,1.80407 -1.77066,2.238382 -3.240644,0.367495 -0.133635,-3.006782 -2.171565,-0.100226 -2.338607,-3.374278 -1.737252,1.302939 -0.801809,1.03567 -0.53454,1.236121 -1.603616,0.801809 -0.868627,-0.467722 -0.03341,-1.369756 -2.046042,0.06651 -3.118302,0.944941 -4.223496,4.651323 -0.868627,1.937704 -0.267269,2.42213 -1.65373,0.534539 -0.350793,1.186009 -1.085781,1.236121 -1.236123,0.618061 -1.302938,0.851922 -3.056895,-0.350791 -0.734991,-0.484426 -1.219417,0.133634 -0.952149,2.154861 -0.909605,1.533116 -0.292905,2.770336 -1.237842,3.101065 1.880457,1.91989 1.313495,1.967137 1.858042,1.89193 3.581611,0.55419 1.686298,1.359075 1.87529,0.839356 1.166583,1.170087 11.576658,-2.23033 0.331301,-2.367211 1.843201,-1.753001 5.575488,-1.334106 1.276006,-2.042812 2.409933,-0.95613 1.08702,0.886504 2.540129,-0.195317 1.661094,-1.80877 1.959734,-1.217148 0.823839,-3.422122 1.594876,-1.673219 2.931226,-0.938226 0.39228,0.538628 4.668136,-0.240947 2.263621,-1.287674 1.962489,1.307028 1.895671,1.741341 3.390439,-0.55977 2.12953,-1.064989"
       style="fill:#d5f6ff;stroke:#000000;stroke-width:0.264583px;stroke-linecap:butt;stroke-linejoin:miter;stroke-opacity:1">
      <title
         id="title38">Eslováquia</title>
    </path>
  </g>
</svg>
