<?xml version="1.0" encoding="UTF-8" standalone="no"?>
<svg
   xmlns:dc="http://purl.org/dc/elements/1.1/"
   xmlns:cc="http://creativecommons.org/ns#"
   xmlns:rdf="http://www.w3.org/1999/02/22-rdf-syntax-ns#"
   xmlns:svg="http://www.w3.org/2000/svg"
   xmlns="http://www.w3.org/2000/svg"
   xmlns:sodipodi="http://sodipodi.sourceforge.net/DTD/sodipodi-0.dtd"
   xmlns:inkscape="http://www.inkscape.org/namespaces/inkscape"
   width="108.62801mm"
   height="31.271334mm"
   viewBox="0 0 108.62801 31.271335"
   version="1.1"
   id="svg212"
   inkscape:version="1.0 (4035a4fb49, 2020-05-01)"
   sodipodi:docname="testebotao.svg">
  <defs
     id="defs206" />
  <sodipodi:namedview
     id="base"
     pagecolor="#ffffff"
     bordercolor="#666666"
     borderopacity="1.0"
     inkscape:pageopacity="0.0"
     inkscape:pageshadow="2"
     inkscape:zoom="0.49497475"
     inkscape:cx="45.458232"
     inkscape:cy="284.49781"
     inkscape:document-units="mm"
     inkscape:current-layer="svg212"
     inkscape:document-rotation="0"
     showgrid="false"
     inkscape:window-width="1360"
     inkscape:window-height="705"
     inkscape:window-x="-8"
     inkscape:window-y="-8"
     inkscape:window-maximized="1" />
  <metadata
     id="metadata209">
    <rdf:RDF>
      <cc:Work
         rdf:about="">
        <dc:format>image/svg+xml</dc:format>
        <dc:type
           rdf:resource="http://purl.org/dc/dcmitype/StillImage" />
        <dc:title />
      </cc:Work>
    </rdf:RDF>
  </metadata>
  
   <a id="portugal" target="_blank" href="https://www.britannica.com/place/Portugal" title="Portugal">
    <path
       id="PORTUGAL"
       d="m 51.031774,211.49372 c 0.451017,-0.18375 1.269532,-0.21716 1.336347,-0.21716 0.06682,0 1.169305,0.0334 1.169305,0.0334 l 0.501132,0.28397 0.417607,-0.13363 0.501132,-0.30068 0.400904,-0.15034 0.150339,-0.15034 -0.0167,-0.30068 -0.200451,-0.10022 v -0.51784 l 0.317381,-0.56795 0.400905,-0.50113 0.100226,-0.3842 0.567947,0.0334 0.384201,-0.45101 -0.451016,-0.10023 -0.350793,-0.46772 -0.367495,-0.31738 0.01669,-0.61807 0.651467,-0.43431 0.400905,-0.46772 0.08352,-0.3675 -0.651468,-0.0835 -0.150339,-0.43431 -0.350792,-0.46772 -0.367496,-0.46772 0.317384,-0.35079 0.35079,-0.0668 0.517834,-0.13364 0.384202,-0.21715 0.150339,-0.55125 -0.451017,-0.66817 0.367496,-0.35079 0.317381,-0.31739 0.05011,-0.70158 -0.233862,-0.46772 -0.367496,-0.70158 0.451019,-0.20045 0.417608,-0.43432 0.484426,-0.15034 0.367495,-0.4176 0.250566,-0.28398 0.183748,-0.43431 -0.734991,-0.0167 -0.350793,-0.11693 0.133636,-0.50113 -0.200454,-0.18375 -0.634764,-0.13363 -0.567947,-0.0334 -0.400904,0.28397 -0.584653,0.3508 -0.601355,-0.28398 -0.584653,-0.0167 -0.567949,0.0334 -0.451017,0.30067 -0.300678,-0.28397 0.167045,-0.50113 -0.05011,-0.26727 h -0.734991 l -0.35079,0.18375 -0.267269,0.28397 -0.484428,0.13364 -0.150339,0.50113 0.267272,0.73499 0.283972,0.98556 0.11693,0.85192 -0.183748,0.46772 -0.300678,0.96885 -0.400905,1.5368 -0.417607,0.81851 c 0,0 -0.183748,0.61806 -0.23386,0.68488 -0.05011,0.0668 -0.517835,0.43431 -0.517835,0.43431 l -0.167045,0.53454 -0.03341,0.78511 -0.250565,0.45101 0.434313,0.16705 0.484426,-0.21716 0.350792,-0.28397 0.183748,-0.33409 0.267269,0.21716 -0.400904,0.46772 -0.35079,0.31738 0.05011,0.48443 0.23386,0.0501 0.41761,-0.23386 0.35079,-0.0167 0.250566,0.13364 -0.11693,0.35079 -0.133636,0.3842 -0.133633,0.58465 0.183748,0.41761 v 0.58465 l -0.133636,0.7684 -0.11693,0.48443 z"
       style="fill:#447821;stroke:#000000;stroke-width:0.264583px;stroke-linecap:butt;stroke-linejoin:miter;stroke-opacity:1">
    </path>
    </a>

</svg>