<?xml version="1.0" encoding="UTF-8" standalone="no"?>
<svg
   xmlns:dc="http://purl.org/dc/elements/1.1/"
   xmlns:cc="http://creativecommons.org/ns#"
   xmlns:rdf="http://www.w3.org/1999/02/22-rdf-syntax-ns#"
   xmlns:svg="http://www.w3.org/2000/svg"
   xmlns="http://www.w3.org/2000/svg"
   xmlns:sodipodi="http://sodipodi.sourceforge.net/DTD/sodipodi-0.dtd"
   xmlns:inkscape="http://www.inkscape.org/namespaces/inkscape"
   width="108.62801mm"
   height="31.271334mm"
   viewBox="0 0 108.62801 31.271335"
   version="1.1"
   id="svg212"
   inkscape:version="1.0 (4035a4fb49, 2020-05-01)"
   sodipodi:docname="testebotao.svg">
  <defs
     id="defs206" />
  <sodipodi:namedview
     id="base"
     pagecolor="#ffffff"
     bordercolor="#666666"
     borderopacity="1.0"
     inkscape:pageopacity="0.0"
     inkscape:pageshadow="2"
     inkscape:zoom="0.49497475"
     inkscape:cx="45.458232"
     inkscape:cy="284.49781"
     inkscape:document-units="mm"
     inkscape:current-layer="svg212"
     inkscape:document-rotation="0"
     showgrid="false"
     inkscape:window-width="1360"
     inkscape:window-height="705"
     inkscape:window-x="-8"
     inkscape:window-y="-8"
     inkscape:window-maximized="1" />
  <metadata
     id="metadata209">
    <rdf:RDF>
      <cc:Work
         rdf:about="">
        <dc:format>image/svg+xml</dc:format>
        <dc:type
           rdf:resource="http://purl.org/dc/dcmitype/StillImage" />
        <dc:title />
      </cc:Work>
    </rdf:RDF>
  </metadata>
  
    <a
     id="austria"
     target="_blank"
     href="https://en.wikipedia.org/wiki/Austria"
     title="Austria">
    <path
     id="Austria"
     d="m 51.850287,3.6081385 -8.686258,-0.534539 -5.078121,-0.1336347 -5.211757,2.271791 -0.801807,2.6726951 1.737252,0.9354434 -1.469983,3.3408687 -5.479026,0.534539 -5.211756,-0.935443 -4.409947,-0.534539 -7.216277,-1.4699823 -5.0781208,0.9354433 -1.2027128,5.61266 3.3408691,1.469982 4.8108515,1.069079 -0.26727,8.285354 5.746295,0.133636 4.810852,-3.608139 4.54358,0.668174 1.33635,-3.207235 4.276312,-0.801808 0.935442,2.80633 2.672697,2.53906 c 0,0 6.548104,-0.400904 7.082641,-0.668173 0.534541,-0.26727 3.608139,-2.405426 4.409948,-2.672696 0.80181,-0.267269 3.474503,-1.870886 3.474503,-1.870886 l 2.405425,-3.340869 c 0,0 -0.400904,-4.009043 0.133636,-4.543582 0.534538,-0.534539 1.737252,-2.6726956 1.737252,-2.6726956 L 54.522983,4.9444862 Z"
     style="fill:#b3b3b3;stroke:#000000;stroke-width:0.264583px;stroke-linecap:butt;stroke-linejoin:miter;stroke-opacity:1"
     />
  </a>
  
  <a
     id="hungary"
     target="_blank"
     href="https://en.wikipedia.org/wiki/Hungary"
     title="Hungary">
    <path
     id="Hungary"
     d="m 51.601324,10.788227 -1.737252,2.672696 -0.133636,4.543582 2.071341,3.741773 4.543581,3.006782 8.28951,5.250361 16.063989,1.133928 12.662201,-4.724701 6.236609,-6.803572 5.858633,-8.126488 3.02381,-6.0476191 L 107.15719,2.7891356 99.975637,0.14330231 89.959273,4.8680047 71.43844,4.6790165 59.343201,5.2459807 51.601324,10.788227"
     style="fill:#ff5555;stroke:#000000;stroke-width:0.264583px;stroke-linecap:butt;stroke-linejoin:miter;stroke-opacity:1" />
  </a>
</svg>
